:FULLY-SPECIFIED
:FORCE-ALL-JOINTS-BE-3DOF
:DEGREES
15
root 0.245765 17.1726 -28.7066 4.56594 -1.84626 -0.475534
lfemur -13.8355 3.4523 -20.6792
ltibia 66.2243 -0 0
lfoot -6.79399 -1.15581 -0.356262
ltoes -10.2462 0 0
rfemur -29.8926 -0.378673 21.7673
rtibia 85.267 -0 0
rfoot 2.34417 -5.60718 0.0740038
rtoes 1.89293 -0 0
lowerback 19.0228 -1.10631 -1.90016
upperback 1.82415 -1.92723 -0.637905
thorax -8.5728 -0.857997 0.890343
lowerneck -2.29004 0.975957 -0.524764
upperneck -14.3398 1.45015 1.29475
head -4.10179 0.68376 0.503249
lclavicle -1.46107e-14 1.03368e-14 0
lhumerus -23.0889 -18.5464 88.2664
lradius 110.713 -0 0
lwrist 29.7136 0 0
lhand -38.0609 10.3836 -0.0257847
lfingers 7.12502 -0 0
lthumb -11.0979 40.0674 -0.024328
rclavicle -1.46107e-14 1.03368e-14 0
rhumerus -46.6375 9.98609 -88.6241
rradius 88.1589 -0 0
rwrist -1.57095 0 0
rhand -47.5705 39.6168 -0.0172521
rfingers 7.12502 -0 0
rthumb -20.2548 10.6642 -0.0197352
16
root 0.256764 17.177 -28.1694 4.56597 -2.25143 -0.72442
lfemur -14.4529 3.99355 -20.0236
ltibia 68.6227 -0 0
lfoot -5.67727 -1.32307 -0.371923
ltoes -10.1512 0 0
rfemur -29.2834 -0.0565614 22.2694
rtibia 83.0677 -0 0
rfoot 1.33202 -5.63937 0.0779211
rtoes 1.25125 -0 0
lowerback 19.0012 -1.09456 -1.59649
upperback 1.8362 -1.83545 -0.490295
thorax -8.5513 -0.82241 0.853769
lowerneck -2.21723 1.08168 -0.447237
upperneck -14.4801 1.56342 1.02371
head -4.14397 0.746504 0.399463
lclavicle -1.46107e-14 1.03368e-14 0
lhumerus -24.3137 -18.2888 88.7542
lradius 110.413 -0 0
lwrist 29.9249 0 0
lhand -38.1446 10.5756 -0.0266469
lfingers 7.12502 -0 0
lthumb -11.1786 40.2549 -0.0251439
rclavicle -1.46107e-14 1.03368e-14 0
rhumerus -45.8738 10.141 -88.6442
rradius 88.8377 -0 0
rwrist -1.64623 0 0
rhand -47.4472 39.5537 -0.0180972
rfingers 7.12502 -0 0
rthumb -20.1362 10.589 -0.0207019
17
root 0.267763 17.1813 -27.6321 4.56729 -2.66147 -0.976389
lfemur -15.0731 4.54863 -19.3651
ltibia 71.0515 -0 0
lfoot -4.54594 -1.49288 -0.384438
ltoes -10.0556 0 0
rfemur -28.6611 0.26316 22.7814
rtibia 80.8403 -0 0
rfoot 0.308173 -5.67219 0.0812821
rtoes 0.603267 -0 0
lowerback 18.9792 -1.08249 -1.28898
upperback 1.84879 -1.74247 -0.340854
thorax -8.52931 -0.786331 0.816674
lowerneck -2.14375 1.18856 -0.36868
upperneck -14.6222 1.67734 0.748996
head -4.18658 0.809915 0.294337
lclavicle -1.46107e-14 1.03368e-14 0
lhumerus -25.5514 -18.0172 89.2418
lradius 110.11 -0 0
lwrist 30.139 0 0
lhand -38.2293 10.77 -0.0272386
lfingers 7.12502 -0 0
lthumb -11.2603 40.4447 -0.0257048
rclavicle -1.46107e-14 1.03368e-14 0
rhumerus -45.0992 10.2978 -88.6621
rradius 89.525 -0 0
rwrist -1.72225 0 0
rhand -47.3219 39.4894 -0.0188169
rfingers 7.12502 -0 0
rthumb -20.0157 10.5126 -0.0215252
18
root 0.278762 17.1857 -27.0949 4.5698 -3.0747 -1.23044
lfemur -15.6938 5.11546 -18.7067
ltibia 73.5011 -0 0
lfoot -3.40434 -1.66455 -0.393638
ltoes -9.95986 0 0
rfemur -28.0273 0.578697 23.3015
rtibia 78.5932 -0 0
rfoot -0.723036 -5.70553 0.0840442
rtoes -0.0480016 0 0
lowerback 18.957 -1.07014 -0.978859
upperback 1.86192 -1.64863 -0.19018
thorax -8.50687 -0.749894 0.779187
lowerneck -2.06999 1.29615 -0.289422
upperneck -14.7656 1.7914 0.471697
head -4.2294 0.873727 0.188289
lclavicle -1.46107e-14 1.03368e-14 0
lhumerus -26.7973 -17.7324 89.7267
lradius 109.802 -0 0
lwrist 30.3552 0 0
lhand -38.3145 10.9659 -0.0275502
lfingers 7.12502 -0 0
lthumb -11.3425 40.6361 -0.0260017
rclavicle -1.46107e-14 1.03368e-14 0
rhumerus -44.3167 10.4559 -88.6775
rradius 90.218 -0 0
rwrist -1.79866 0 0
rhand -47.1949 39.4244 -0.0194028
rfingers 7.12502 -0 0
rthumb -19.8936 10.4352 -0.0221954
19
root 0.289761 17.1901 -26.5576 4.5734 -3.48944 -1.48555
lfemur -16.3128 5.6918 -18.0508
ltibia 75.962 -0 0
lfoot -2.25682 -1.83739 -0.3994
ltoes -9.86444 0 0
rfemur -27.3839 0.888328 23.8277
rtibia 76.3353 -0 0
rfoot -1.75729 -5.73929 0.0861729
rtoes -0.699545 0 0
lowerback 18.9345 -1.05752 -0.667334
upperback 1.87557 -1.55429 -0.0388727
thorax -8.484 -0.713233 0.741435
lowerneck -1.99633 1.40401 -0.209794
upperneck -14.9095 1.90512 0.192904
head -4.27221 0.937677 0.0817396
lclavicle -1.46107e-14 1.03368e-14 0
lhumerus -28.0468 -17.4351 90.2067
lradius 109.492 -0 0
lwrist 30.5728 0 0
lhand -38.4 11.1626 -0.0275768
lfingers 7.12502 -0 0
lthumb -11.4249 40.8283 -0.0260301
rclavicle -1.46107e-14 1.03368e-14 0
rhumerus -43.5289 10.6146 -88.6902
rradius 90.9139 -0 0
rwrist -1.8751 0 0
rhand -47.0666 39.3586 -0.019848
rfingers 7.12502 -0 0
rthumb -19.7703 10.357 -0.0227047
20
root 0.30076 17.1945 -26.0204 4.57795 -3.904 -1.74072
lfemur -16.9279 6.27533 -17.4001
ltibia 78.4246 -0 0
lfoot -1.10775 -2.01069 -0.401657
ltoes -9.76987 0 0
rfemur -26.7327 1.1904 24.3579
rtibia 74.0752 -0 0
rfoot -2.79028 -5.77337 0.0876421
rtoes -1.34835 0 0
lowerback 18.9118 -1.04469 -0.355618
upperback 1.88975 -1.4598 0.112469
thorax -8.46074 -0.676484 0.703547
lowerneck -1.92318 1.51169 -0.130131
upperneck -15.0534 2.01802 -0.0862836
head -4.31477 1.00151 -0.0248922
lclavicle -1.46107e-14 1.03368e-14 0
lhumerus -29.2953 -17.1264 90.6797
lradius 109.18 -0 0
lwrist 30.7909 0 0
lhand -38.4853 11.3593 -0.0273186
lfingers 7.12502 -0 0
lthumb -11.5072 41.0205 -0.0257901
rclavicle -1.46107e-14 1.03368e-14 0
rhumerus -42.7389 10.7731 -88.7
rradius 91.6101 -0 0
rwrist -1.95123 0 0
rhand -46.9374 39.2924 -0.0201476
rfingers 7.12502 -0 0
rthumb -19.646 10.2782 -0.0230474
21
root 0.311759 17.1989 -25.4831 4.58328 -4.31672 -1.99493
lfemur -17.5371 6.86363 -16.757
ltibia 80.8793 -0 0
lfoot 0.0385286 -2.18375 -0.400394
ltoes -9.67666 0 0
rfemur -26.0755 1.48336 24.8902
rtibia 71.8215 -0 0
rfoot -3.81766 -5.80766 0.0884346
rtoes -1.99139 0 0
lowerback 18.8889 -1.03166 -0.044925
upperback 1.90443 -1.3655 0.263245
thorax -8.4371 -0.639781 0.665651
lowerneck -1.85092 1.61875 -0.0507686
upperneck -15.1965 2.12964 -0.364763
head -4.35688 1.06495 -0.131185
lclavicle -1.46107e-14 1.03368e-14 0
lhumerus -30.5384 -16.8075 91.1438
lradius 108.868 -0 0
lwrist 31.0087 0 0
lhand -38.5702 11.5552 -0.0267804
lfingers 7.12502 -0 0
lthumb -11.589 41.2119 -0.025286
rclavicle -1.46107e-14 1.03368e-14 0
rhumerus -41.9493 10.9307 -88.7069
rradius 92.3039 -0 0
rwrist -2.0267 0 0
rhand -46.8076 39.2259 -0.020298
rfingers 7.12502 -0 0
rthumb -19.5213 10.1991 -0.0232195
22
root 0.322758 17.2032 -24.9459 4.58919 -4.7259 -2.24716
lfemur -18.1383 7.45417 -16.124
ltibia 83.3167 -0 0
lfoot 1.17765 -2.35587 -0.395648
ltoes -9.58533 0 0
rfemur -25.4143 1.7657 25.4224
rtibia 69.5829 -0 0
rfoot -4.83514 -5.84207 0.0885417
rtoes -2.62566 0 0
lowerback 18.866 -1.01848 0.263532
upperback 1.91958 -1.27174 0.412856
thorax -8.41311 -0.603258 0.627875
lowerneck -1.77995 1.72476 0.0279523
upperneck -15.3381 2.23953 -0.641426
head -4.39829 1.12775 -0.236716
lclavicle -1.46107e-14 1.03368e-14 0
lhumerus -31.7716 -16.4797 91.5969
lradius 108.556 -0 0
lwrist 31.2254 0 0
lhand -38.6541 11.7496 -0.0259719
lfingers 7.12502 -0 0
lthumb -11.67 41.4018 -0.024527
rclavicle -1.46107e-14 1.03368e-14 0
rhumerus -41.1631 11.0867 -88.7107
rradius 92.9923 -0 0
rwrist -2.10114 0 0
rhand -46.6777 39.1593 -0.0202976
rfingers 7.12502 -0 0
rthumb -19.3963 10.1199 -0.0232191
23
root 0.333757 17.2076 -24.4086 4.59546 -5.12988 -2.49638
lfemur -18.7298 8.04433 -15.5034
ltibia 85.7271 -0 0
lfoot 2.30528 -2.52635 -0.387508
ltoes -9.49638 0 0
rfemur -24.7511 2.03602 25.9523
rtibia 67.3681 -0 0
rfoot -5.83839 -5.87648 0.0879635
rtoes -3.24815 0 0
lowerback 18.843 -1.00518 0.56854
upperback 1.9352 -1.17887 0.560703
thorax -8.3888 -0.567051 0.590346
lowerneck -1.71067 1.82928 0.10569
upperneck -15.4776 2.34726 -0.915157
head -4.43877 1.18966 -0.341063
lclavicle -1.46107e-14 1.03368e-14 0
lhumerus -32.9907 -16.1444 92.0374
lradius 108.246 -0 0
lwrist 31.4404 0 0
lhand -38.7369 11.9416 -0.0249073
lfingers 7.12502 -0 0
lthumb -11.7498 41.5894 -0.0235265
rclavicle -1.46107e-14 1.03368e-14 0
rhumerus -40.3831 11.2403 -88.7113
rradius 93.6728 -0 0
rwrist -2.1742 0 0
rhand -46.5479 39.0929 -0.0201463
rfingers 7.12502 -0 0
rthumb -19.2716 10.0408 -0.0230461
24
root 0.344756 17.212 -23.8714 4.60181 -5.52698 -2.74155
lfemur -19.3097 8.63142 -14.8974
ltibia 88.1009 -0 0
lfoot 3.41704 -2.69449 -0.376117
ltoes -9.41032 0 0
rfemur -24.0879 2.29302 26.4776
rtibia 65.1858 -0 0
rfoot -6.82308 -5.91079 0.0867088
rtoes -3.85584 0 0
lowerback 18.82 -0.991794 0.868887
upperback 1.95126 -1.08725 0.706184
thorax -8.3642 -0.531295 0.553192
lowerneck -1.64348 1.93189 0.1821
upperneck -15.6142 2.45238 -1.18484
head -4.4781 1.2504 -0.443802
lclavicle -1.46107e-14 1.03368e-14 0
lhumerus -34.1913 -15.8033 92.4636
lradius 107.937 -0 0
lwrist 31.6527 0 0
lhand -38.818 12.1305 -0.0236055
lfingers 7.12502 -0 0
lthumb -11.828 41.774 -0.0223024
rclavicle -1.46107e-14 1.03368e-14 0
rhumerus -39.612 11.3909 -88.7088
rradius 94.3426 -0 0
rwrist -2.24554 0 0
rhand -46.4187 39.0267 -0.0198459
rfingers 7.12502 -0 0
rthumb -19.1473 9.96202 -0.0227025
25
root 0.355755 17.2164 -23.3341 4.60798 -5.91553 -2.98164
lfemur -19.8764 9.21264 -14.3082
ltibia 90.4287 -0 0
lfoot 4.50859 -2.85962 -0.361665
ltoes -9.32767 0 0
rfemur -23.4269 2.53545 26.996
rtibia 63.0446 -0 0
rfoot -7.7849 -5.9449 0.0847948
rtoes -4.44571 0 0
lowerback 18.7971 -0.978373 1.16336
upperback 1.96771 -0.997208 0.848701
thorax -8.33932 -0.496125 0.51654
lowerneck -1.57879 2.03214 0.256835
upperneck -15.7471 2.5545 -1.44935
head -4.51605 1.30974 -0.544508
lclavicle -1.46107e-14 1.03368e-14 0
lhumerus -35.3693 -15.4579 92.8739
lradius 107.633 -0 0
lwrist 31.8616 0 0
lhand -38.8972 12.3155 -0.02209
lfingers 7.12502 -0 0
lthumb -11.9044 41.9548 -0.0208764
rclavicle -1.46107e-14 1.03368e-14 0
rhumerus -38.8529 11.5376 -88.7031
rradius 94.9989 -0 0
rwrist -2.3148 0 0
rhand -46.2905 38.961 -0.0193998
rfingers 7.12502 -0 0
rthumb -19.024 9.88385 -0.0221923
